<svg width="470" height="447" viewBox="0 0 470 447" fill="none" xmlns="http://www.w3.org/2000/svg">
<path d="M56.7194 180.442L246.463 2.09317L423.305 180.421L363.887 376.5H246.5H120.092L56.7194 180.442Z" stroke="#00953D" stroke-width="3"/>
<path d="M245.185 277H387L355.382 370H245.185H126.618L95 277H245.185Z" fill="#00953D"/>
<path d="M143.72 342.12H162.12V351H132.52V295.16H143.72V342.12ZM180.439 295.16V351H169.239V295.16H180.439ZM210.784 351.56C206.891 351.56 203.371 350.893 200.224 349.56C197.131 348.227 194.678 346.307 192.864 343.8C191.051 341.293 190.118 338.333 190.064 334.92H202.064C202.224 337.213 203.024 339.027 204.464 340.36C205.958 341.693 207.984 342.36 210.544 342.36C213.158 342.36 215.211 341.747 216.704 340.52C218.198 339.24 218.944 337.587 218.944 335.56C218.944 333.907 218.438 332.547 217.424 331.48C216.411 330.413 215.131 329.587 213.584 329C212.091 328.36 210.011 327.667 207.344 326.92C203.718 325.853 200.758 324.813 198.464 323.8C196.224 322.733 194.278 321.16 192.624 319.08C191.024 316.947 190.224 314.12 190.224 310.6C190.224 307.293 191.051 304.413 192.704 301.96C194.358 299.507 196.678 297.64 199.664 296.36C202.651 295.027 206.064 294.36 209.904 294.36C215.664 294.36 220.331 295.773 223.904 298.6C227.531 301.373 229.531 305.267 229.904 310.28H217.584C217.478 308.36 216.651 306.787 215.104 305.56C213.611 304.28 211.611 303.64 209.104 303.64C206.918 303.64 205.158 304.2 203.824 305.32C202.544 306.44 201.904 308.067 201.904 310.2C201.904 311.693 202.384 312.947 203.344 313.96C204.358 314.92 205.584 315.72 207.024 316.36C208.518 316.947 210.598 317.64 213.264 318.44C216.891 319.507 219.851 320.573 222.144 321.64C224.438 322.707 226.411 324.307 228.064 326.44C229.718 328.573 230.544 331.373 230.544 334.84C230.544 337.827 229.771 340.6 228.224 343.16C226.678 345.72 224.411 347.773 221.424 349.32C218.438 350.813 214.891 351.56 210.784 351.56ZM237.534 323C237.534 317.507 238.761 312.6 241.214 308.28C243.721 303.907 247.108 300.52 251.374 298.12C255.694 295.667 260.521 294.44 265.854 294.44C272.094 294.44 277.561 296.04 282.254 299.24C286.948 302.44 290.228 306.867 292.094 312.52H279.214C277.934 309.853 276.121 307.853 273.774 306.52C271.481 305.187 268.814 304.52 265.774 304.52C262.521 304.52 259.614 305.293 257.054 306.84C254.548 308.333 252.574 310.467 251.134 313.24C249.748 316.013 249.054 319.267 249.054 323C249.054 326.68 249.748 329.933 251.134 332.76C252.574 335.533 254.548 337.693 257.054 339.24C259.614 340.733 262.521 341.48 265.774 341.48C268.814 341.48 271.481 340.813 273.774 339.48C276.121 338.093 277.934 336.067 279.214 333.4H292.094C290.228 339.107 286.948 343.56 282.254 346.76C277.614 349.907 272.148 351.48 265.854 351.48C260.521 351.48 255.694 350.28 251.374 347.88C247.108 345.427 243.721 342.04 241.214 337.72C238.761 333.4 237.534 328.493 237.534 323ZM335.901 340.36H313.661L309.981 351H298.221L318.301 295.08H331.341L351.421 351H339.581L335.901 340.36ZM332.861 331.4L324.781 308.04L316.701 331.4H332.861Z" fill="white"/>
<path d="M295.687 141.781C350.241 142.963 353.448 216.266 301.983 220.387C301.983 220.387 344.453 159.393 275.47 157.279C206.487 155.165 168.864 165.817 168.864 165.817C188.408 157.312 241.134 140.598 295.687 141.781Z" fill="#00953D"/>
<path d="M409.329 49.2099L387.144 31L357.563 69.1271L319.449 36.6906L308.641 45.2265L348.461 81.0773L203 261L208 267L363.82 96.442L409.329 133.431L419 120.343L376.335 85.0608L409.329 49.2099Z" fill="#FC0909"/>
<path d="M194.187 235.692C137.903 231.012 140.656 169 194.187 169C194.187 169 145.244 217.552 216.364 223.991C287.485 230.431 306 199.536 306 199.536C296.083 233.43 250.471 240.372 194.187 235.692Z" fill="#2A1476"/>
<path d="M4.716 433.252C3.804 433.252 3.048 432.976 2.448 432.424C1.872 431.848 1.584 431.14 1.584 430.3C1.584 429.46 1.872 428.764 2.448 428.212C3.048 427.636 3.804 427.348 4.716 427.348C5.604 427.348 6.336 427.636 6.912 428.212C7.488 428.764 7.776 429.46 7.776 430.3C7.776 431.14 7.488 431.848 6.912 432.424C6.336 432.976 5.604 433.252 4.716 433.252ZM14.0676 433.252C13.1556 433.252 12.3996 432.976 11.7996 432.424C11.2236 431.848 10.9356 431.14 10.9356 430.3C10.9356 429.46 11.2236 428.764 11.7996 428.212C12.3996 427.636 13.1556 427.348 14.0676 427.348C14.9556 427.348 15.6876 427.636 16.2636 428.212C16.8396 428.764 17.1276 429.46 17.1276 430.3C17.1276 431.14 16.8396 431.848 16.2636 432.424C15.6876 432.976 14.9556 433.252 14.0676 433.252ZM23.4191 433.252C22.5071 433.252 21.7511 432.976 21.1511 432.424C20.5751 431.848 20.2871 431.14 20.2871 430.3C20.2871 429.46 20.5751 428.764 21.1511 428.212C21.7511 427.636 22.5071 427.348 23.4191 427.348C24.3071 427.348 25.0391 427.636 25.6151 428.212C26.1911 428.764 26.4791 429.46 26.4791 430.3C26.4791 431.14 26.1911 431.848 25.6151 432.424C25.0391 432.976 24.3071 433.252 23.4191 433.252ZM35.5787 429.004H43.8587V433H30.5387V407.872H35.5787V429.004ZM49.6181 410.68C48.7301 410.68 47.9861 410.404 47.3861 409.852C46.8101 409.276 46.5221 408.568 46.5221 407.728C46.5221 406.888 46.8101 406.192 47.3861 405.64C47.9861 405.064 48.7301 404.776 49.6181 404.776C50.5061 404.776 51.2381 405.064 51.8141 405.64C52.4141 406.192 52.7141 406.888 52.7141 407.728C52.7141 408.568 52.4141 409.276 51.8141 409.852C51.2381 410.404 50.5061 410.68 49.6181 410.68ZM52.1021 413.056V433H47.0621V413.056H52.1021ZM65.3977 428.356L70.4377 413.056H75.8017L68.4217 433H62.3017L54.9577 413.056H60.3577L65.3977 428.356ZM81.1884 410.68C80.3004 410.68 79.5564 410.404 78.9564 409.852C78.3804 409.276 78.0924 408.568 78.0924 407.728C78.0924 406.888 78.3804 406.192 78.9564 405.64C79.5564 405.064 80.3004 404.776 81.1884 404.776C82.0764 404.776 82.8084 405.064 83.3844 405.64C83.9844 406.192 84.2844 406.888 84.2844 407.728C84.2844 408.568 83.9844 409.276 83.3844 409.852C82.8084 410.404 82.0764 410.68 81.1884 410.68ZM83.6724 413.056V433H78.6324V413.056H83.6724ZM99.704 412.768C102.08 412.768 104 413.524 105.464 415.036C106.928 416.524 107.66 418.612 107.66 421.3V433H102.62V421.984C102.62 420.4 102.224 419.188 101.432 418.348C100.64 417.484 99.56 417.052 98.192 417.052C96.8 417.052 95.696 417.484 94.88 418.348C94.088 419.188 93.692 420.4 93.692 421.984V433H88.652V413.056H93.692V415.54C94.364 414.676 95.216 414.004 96.248 413.524C97.304 413.02 98.456 412.768 99.704 412.768ZM120.265 412.732C121.753 412.732 123.061 413.032 124.189 413.632C125.317 414.208 126.205 414.964 126.853 415.9V413.056H131.929V433.144C131.929 434.992 131.557 436.636 130.813 438.076C130.069 439.54 128.953 440.692 127.465 441.532C125.977 442.396 124.177 442.828 122.065 442.828C119.233 442.828 116.905 442.168 115.081 440.848C113.281 439.528 112.261 437.728 112.021 435.448H117.025C117.289 436.36 117.853 437.08 118.717 437.608C119.605 438.16 120.673 438.436 121.921 438.436C123.385 438.436 124.573 437.992 125.485 437.104C126.397 436.24 126.853 434.92 126.853 433.144V430.048C126.205 430.984 125.305 431.764 124.153 432.388C123.025 433.012 121.729 433.324 120.265 433.324C118.585 433.324 117.049 432.892 115.657 432.028C114.265 431.164 113.161 429.952 112.345 428.392C111.553 426.808 111.157 424.996 111.157 422.956C111.157 420.94 111.553 419.152 112.345 417.592C113.161 416.032 114.253 414.832 115.621 413.992C117.013 413.152 118.561 412.732 120.265 412.732ZM126.853 423.028C126.853 421.804 126.613 420.76 126.133 419.896C125.653 419.008 125.005 418.336 124.189 417.88C123.373 417.4 122.497 417.16 121.561 417.16C120.625 417.16 119.761 417.388 118.969 417.844C118.177 418.3 117.529 418.972 117.025 419.86C116.545 420.724 116.305 421.756 116.305 422.956C116.305 424.156 116.545 425.212 117.025 426.124C117.529 427.012 118.177 427.696 118.969 428.176C119.785 428.656 120.649 428.896 121.561 428.896C122.497 428.896 123.373 428.668 124.189 428.212C125.005 427.732 125.653 427.06 126.133 426.196C126.613 425.308 126.853 424.252 126.853 423.028ZM150.469 416.152C151.117 415.096 151.957 414.268 152.989 413.668C154.045 413.068 155.245 412.768 156.589 412.768V418.06H155.257C153.673 418.06 152.473 418.432 151.657 419.176C150.865 419.92 150.469 421.216 150.469 423.064V433H145.429V413.056H150.469V416.152ZM162.54 410.68C161.652 410.68 160.908 410.404 160.308 409.852C159.732 409.276 159.444 408.568 159.444 407.728C159.444 406.888 159.732 406.192 160.308 405.64C160.908 405.064 161.652 404.776 162.54 404.776C163.428 404.776 164.16 405.064 164.736 405.64C165.336 406.192 165.636 406.888 165.636 407.728C165.636 408.568 165.336 409.276 164.736 409.852C164.16 410.404 163.428 410.68 162.54 410.68ZM165.024 413.056V433H159.984V413.056H165.024ZM177.816 412.732C179.304 412.732 180.612 413.032 181.74 413.632C182.868 414.208 183.756 414.964 184.404 415.9V413.056H189.48V433.144C189.48 434.992 189.108 436.636 188.364 438.076C187.62 439.54 186.504 440.692 185.016 441.532C183.528 442.396 181.728 442.828 179.616 442.828C176.784 442.828 174.456 442.168 172.632 440.848C170.832 439.528 169.812 437.728 169.572 435.448H174.576C174.84 436.36 175.404 437.08 176.268 437.608C177.156 438.16 178.224 438.436 179.472 438.436C180.936 438.436 182.124 437.992 183.036 437.104C183.948 436.24 184.404 434.92 184.404 433.144V430.048C183.756 430.984 182.856 431.764 181.704 432.388C180.576 433.012 179.28 433.324 177.816 433.324C176.136 433.324 174.6 432.892 173.208 432.028C171.816 431.164 170.712 429.952 169.896 428.392C169.104 426.808 168.708 424.996 168.708 422.956C168.708 420.94 169.104 419.152 169.896 417.592C170.712 416.032 171.804 414.832 173.172 413.992C174.564 413.152 176.112 412.732 177.816 412.732ZM184.404 423.028C184.404 421.804 184.164 420.76 183.684 419.896C183.204 419.008 182.556 418.336 181.74 417.88C180.924 417.4 180.048 417.16 179.112 417.16C178.176 417.16 177.312 417.388 176.52 417.844C175.728 418.3 175.08 418.972 174.576 419.86C174.096 420.724 173.856 421.756 173.856 422.956C173.856 424.156 174.096 425.212 174.576 426.124C175.08 427.012 175.728 427.696 176.52 428.176C177.336 428.656 178.2 428.896 179.112 428.896C180.048 428.896 180.924 428.668 181.74 428.212C182.556 427.732 183.204 427.06 183.684 426.196C184.164 425.308 184.404 424.252 184.404 423.028ZM205.634 412.768C207.146 412.768 208.49 413.104 209.666 413.776C210.842 414.424 211.754 415.396 212.402 416.692C213.074 417.964 213.41 419.5 213.41 421.3V433H208.37V421.984C208.37 420.4 207.974 419.188 207.182 418.348C206.39 417.484 205.31 417.052 203.942 417.052C202.55 417.052 201.446 417.484 200.63 418.348C199.838 419.188 199.442 420.4 199.442 421.984V433H194.402V406.36H199.442V415.54C200.09 414.676 200.954 414.004 202.034 413.524C203.114 413.02 204.314 412.768 205.634 412.768ZM224.071 417.196V426.844C224.071 427.516 224.227 428.008 224.539 428.32C224.875 428.608 225.427 428.752 226.195 428.752H228.535V433H225.367C221.119 433 218.995 430.936 218.995 426.808V417.196H216.619V413.056H218.995V408.124H224.071V413.056H228.535V417.196H224.071ZM237.668 427.708L233.456 437.824H230.216L232.556 427.708H237.668ZM254.919 429.004H263.199V433H249.879V407.872H254.919V429.004ZM268.958 410.68C268.07 410.68 267.326 410.404 266.726 409.852C266.15 409.276 265.862 408.568 265.862 407.728C265.862 406.888 266.15 406.192 266.726 405.64C267.326 405.064 268.07 404.776 268.958 404.776C269.846 404.776 270.578 405.064 271.154 405.64C271.754 406.192 272.054 406.888 272.054 407.728C272.054 408.568 271.754 409.276 271.154 409.852C270.578 410.404 269.846 410.68 268.958 410.68ZM271.442 413.056V433H266.402V413.056H271.442ZM285.566 417.196H282.074V433H276.962V417.196H274.694V413.056H276.962V412.048C276.962 409.6 277.658 407.8 279.05 406.648C280.442 405.496 282.542 404.956 285.35 405.028V409.276C284.126 409.252 283.274 409.456 282.794 409.888C282.314 410.32 282.074 411.1 282.074 412.228V413.056H285.566V417.196ZM294.7 417.196V426.844C294.7 427.516 294.856 428.008 295.168 428.32C295.504 428.608 296.056 428.752 296.824 428.752H299.164V433H295.996C291.748 433 289.624 430.936 289.624 426.808V417.196H287.248V413.056H289.624V408.124H294.7V413.056H299.164V417.196H294.7ZM305.345 410.68C304.457 410.68 303.713 410.404 303.113 409.852C302.537 409.276 302.249 408.568 302.249 407.728C302.249 406.888 302.537 406.192 303.113 405.64C303.713 405.064 304.457 404.776 305.345 404.776C306.233 404.776 306.965 405.064 307.541 405.64C308.141 406.192 308.441 406.888 308.441 407.728C308.441 408.568 308.141 409.276 307.541 409.852C306.965 410.404 306.233 410.68 305.345 410.68ZM307.829 413.056V433H302.789V413.056H307.829ZM323.86 412.768C326.236 412.768 328.156 413.524 329.62 415.036C331.084 416.524 331.816 418.612 331.816 421.3V433H326.776V421.984C326.776 420.4 326.38 419.188 325.588 418.348C324.796 417.484 323.716 417.052 322.348 417.052C320.956 417.052 319.852 417.484 319.036 418.348C318.244 419.188 317.848 420.4 317.848 421.984V433H312.808V413.056H317.848V415.54C318.52 414.676 319.372 414.004 320.404 413.524C321.46 413.02 322.612 412.768 323.86 412.768ZM344.421 412.732C345.909 412.732 347.217 413.032 348.345 413.632C349.473 414.208 350.361 414.964 351.009 415.9V413.056H356.085V433.144C356.085 434.992 355.713 436.636 354.969 438.076C354.225 439.54 353.109 440.692 351.621 441.532C350.133 442.396 348.333 442.828 346.221 442.828C343.389 442.828 341.061 442.168 339.237 440.848C337.437 439.528 336.417 437.728 336.177 435.448H341.181C341.445 436.36 342.009 437.08 342.873 437.608C343.761 438.16 344.829 438.436 346.077 438.436C347.541 438.436 348.729 437.992 349.641 437.104C350.553 436.24 351.009 434.92 351.009 433.144V430.048C350.361 430.984 349.461 431.764 348.309 432.388C347.181 433.012 345.885 433.324 344.421 433.324C342.741 433.324 341.205 432.892 339.813 432.028C338.421 431.164 337.317 429.952 336.501 428.392C335.709 426.808 335.313 424.996 335.313 422.956C335.313 420.94 335.709 419.152 336.501 417.592C337.317 416.032 338.409 414.832 339.777 413.992C341.169 413.152 342.717 412.732 344.421 412.732ZM351.009 423.028C351.009 421.804 350.769 420.76 350.289 419.896C349.809 419.008 349.161 418.336 348.345 417.88C347.529 417.4 346.653 417.16 345.717 417.16C344.781 417.16 343.917 417.388 343.125 417.844C342.333 418.3 341.685 418.972 341.181 419.86C340.701 420.724 340.461 421.756 340.461 422.956C340.461 424.156 340.701 425.212 341.181 426.124C341.685 427.012 342.333 427.696 343.125 428.176C343.941 428.656 344.805 428.896 345.717 428.896C346.653 428.896 347.529 428.668 348.345 428.212C349.161 427.732 349.809 427.06 350.289 426.196C350.769 425.308 351.009 424.252 351.009 423.028ZM374.626 429.004H382.906V433H369.586V407.872H374.626V429.004ZM388.665 410.68C387.777 410.68 387.033 410.404 386.433 409.852C385.857 409.276 385.569 408.568 385.569 407.728C385.569 406.888 385.857 406.192 386.433 405.64C387.033 405.064 387.777 404.776 388.665 404.776C389.553 404.776 390.285 405.064 390.861 405.64C391.461 406.192 391.761 406.888 391.761 407.728C391.761 408.568 391.461 409.276 390.861 409.852C390.285 410.404 389.553 410.68 388.665 410.68ZM391.149 413.056V433H386.109V413.056H391.149ZM404.445 428.356L409.485 413.056H414.849L407.469 433H401.349L394.005 413.056H399.405L404.445 428.356ZM436.219 422.596C436.219 423.316 436.171 423.964 436.075 424.54H421.495C421.615 425.98 422.119 427.108 423.007 427.924C423.895 428.74 424.987 429.148 426.283 429.148C428.155 429.148 429.487 428.344 430.279 426.736H435.715C435.139 428.656 434.035 430.24 432.403 431.488C430.771 432.712 428.767 433.324 426.391 433.324C424.471 433.324 422.743 432.904 421.207 432.064C419.695 431.2 418.507 429.988 417.643 428.428C416.803 426.868 416.383 425.068 416.383 423.028C416.383 420.964 416.803 419.152 417.643 417.592C418.483 416.032 419.659 414.832 421.171 413.992C422.683 413.152 424.423 412.732 426.391 412.732C428.287 412.732 429.979 413.14 431.467 413.956C432.979 414.772 434.143 415.936 434.959 417.448C435.799 418.936 436.219 420.652 436.219 422.596ZM430.999 421.156C430.975 419.86 430.507 418.828 429.595 418.06C428.683 417.268 427.567 416.872 426.247 416.872C424.999 416.872 423.943 417.256 423.079 418.024C422.239 418.768 421.723 419.812 421.531 421.156H430.999ZM447.53 433.324C445.898 433.324 444.434 433.036 443.138 432.46C441.842 431.86 440.81 431.056 440.042 430.048C439.298 429.04 438.89 427.924 438.818 426.7H443.894C443.99 427.468 444.362 428.104 445.01 428.608C445.682 429.112 446.51 429.364 447.494 429.364C448.454 429.364 449.198 429.172 449.726 428.788C450.278 428.404 450.554 427.912 450.554 427.312C450.554 426.664 450.218 426.184 449.546 425.872C448.898 425.536 447.854 425.176 446.414 424.792C444.926 424.432 443.702 424.06 442.742 423.676C441.806 423.292 440.99 422.704 440.294 421.912C439.622 421.12 439.286 420.052 439.286 418.708C439.286 417.604 439.598 416.596 440.222 415.684C440.87 414.772 441.782 414.052 442.958 413.524C444.158 412.996 445.562 412.732 447.17 412.732C449.546 412.732 451.442 413.332 452.858 414.532C454.274 415.708 455.054 417.304 455.198 419.32H450.374C450.302 418.528 449.966 417.904 449.366 417.448C448.79 416.968 448.01 416.728 447.026 416.728C446.114 416.728 445.406 416.896 444.902 417.232C444.422 417.568 444.182 418.036 444.182 418.636C444.182 419.308 444.518 419.824 445.19 420.184C445.862 420.52 446.906 420.868 448.322 421.228C449.762 421.588 450.95 421.96 451.886 422.344C452.822 422.728 453.626 423.328 454.298 424.144C454.994 424.936 455.354 425.992 455.378 427.312C455.378 428.464 455.054 429.496 454.406 430.408C453.782 431.32 452.87 432.04 451.67 432.568C450.494 433.072 449.114 433.324 447.53 433.324ZM466.031 407.44L465.455 424.828H461.207L460.595 407.44H466.031ZM463.439 433.252C462.527 433.252 461.771 432.976 461.171 432.424C460.595 431.848 460.307 431.14 460.307 430.3C460.307 429.46 460.595 428.764 461.171 428.212C461.771 427.636 462.527 427.348 463.439 427.348C464.327 427.348 465.059 427.636 465.635 428.212C466.211 428.764 466.499 429.46 466.499 430.3C466.499 431.14 466.211 431.848 465.635 432.424C465.059 432.976 464.327 433.252 463.439 433.252Z" fill="white"/>
</svg>
